<svg width="200" height="200" viewBox="0 0 200 200" fill="none" xmlns="http://www.w3.org/2000/svg">
<rect width="200" height="200" fill="black"/>
<rect width="200" height="200" fill="#12121A"/>
<path d="M12.72 46L17.664 20.8H25.344L31.056 46H25.776L19.968 20.944H22.752L17.616 46H12.72ZM10.752 46L10.704 40.528H16.032V46H10.752ZM8.064 46L0.96 19.936H7.44L14.208 46H8.064ZM27.456 46V40.528H32.784L32.736 46H27.456ZM29.568 46L35.568 19.936H41.616L35.328 46H29.568ZM63.6356 46.912C61.3316 46.912 59.2996 46.544 57.5396 45.808C55.7796 45.072 54.2916 44.08 53.0756 42.832C51.8596 41.552 50.9316 40.112 50.2916 38.512C49.6836 36.912 49.3796 35.248 49.3796 33.52V32.512C49.3796 30.72 49.6996 29.024 50.3396 27.424C51.0116 25.792 51.9556 24.352 53.1716 23.104C54.4196 21.824 55.9236 20.832 57.6836 20.128C59.4436 19.392 61.4276 19.024 63.6356 19.024C65.8436 19.024 67.8276 19.392 69.5876 20.128C71.3476 20.832 72.8356 21.824 74.0516 23.104C75.2996 24.352 76.2436 25.792 76.8836 27.424C77.5236 29.024 77.8436 30.72 77.8436 32.512V33.52C77.8436 35.248 77.5236 36.912 76.8836 38.512C76.2756 40.112 75.3636 41.552 74.1476 42.832C72.9316 44.08 71.4436 45.072 69.6836 45.808C67.9236 46.544 65.9076 46.912 63.6356 46.912ZM63.6356 41.2C65.2676 41.2 66.6436 40.848 67.7636 40.144C68.8836 39.408 69.7316 38.432 70.3076 37.216C70.8836 35.968 71.1716 34.56 71.1716 32.992C71.1716 31.392 70.8676 29.984 70.2596 28.768C69.6836 27.52 68.8196 26.544 67.6676 25.84C66.5476 25.104 65.2036 24.736 63.6356 24.736C62.0676 24.736 60.7076 25.104 59.5556 25.84C58.4356 26.544 57.5716 27.52 56.9636 28.768C56.3556 29.984 56.0516 31.392 56.0516 32.992C56.0516 34.56 56.3396 35.968 56.9156 37.216C57.5236 38.432 58.3876 39.408 59.5076 40.144C60.6276 40.848 62.0036 41.2 63.6356 41.2ZM88.4857 46V19.936H93.7657V30.976H93.6217C93.6217 27.232 94.4217 24.4 96.0217 22.48C97.6217 20.56 99.9737 19.6 103.078 19.6H104.038V25.408H102.214C99.9737 25.408 98.2297 26.016 96.9817 27.232C95.7657 28.416 95.1577 30.144 95.1577 32.416V46H88.4857ZM123.914 46.864C122.09 46.864 120.41 46.528 118.874 45.856C117.338 45.184 116.01 44.24 114.89 43.024C113.77 41.808 112.906 40.4 112.298 38.8C111.69 37.168 111.386 35.408 111.386 33.52V32.512C111.386 30.656 111.674 28.912 112.25 27.28C112.858 25.648 113.69 24.224 114.746 23.008C115.834 21.792 117.13 20.848 118.634 20.176C120.17 19.472 121.866 19.12 123.722 19.12C125.77 19.12 127.562 19.568 129.098 20.464C130.666 21.328 131.914 22.64 132.842 24.4C133.77 26.16 134.282 28.368 134.378 31.024L132.41 28.72V10.96H139.082V46H133.802V34.912H134.954C134.858 37.568 134.314 39.792 133.322 41.584C132.33 43.344 131.018 44.672 129.386 45.568C127.786 46.432 125.962 46.864 123.914 46.864ZM125.402 41.248C126.714 41.248 127.914 40.96 129.002 40.384C130.09 39.776 130.954 38.912 131.594 37.792C132.266 36.64 132.602 35.296 132.602 33.76V31.84C132.602 30.304 132.266 29.024 131.594 28C130.922 26.944 130.042 26.144 128.954 25.6C127.866 25.024 126.682 24.736 125.402 24.736C123.962 24.736 122.682 25.088 121.562 25.792C120.474 26.464 119.61 27.424 118.97 28.672C118.362 29.92 118.058 31.376 118.058 33.04C118.058 34.704 118.378 36.16 119.018 37.408C119.658 38.624 120.522 39.568 121.61 40.24C122.73 40.912 123.994 41.248 125.402 41.248ZM15.12 106.336C12.72 106.336 10.736 106.032 9.168 105.424C7.632 104.784 6.48 103.728 5.712 102.256C4.944 100.752 4.56 98.736 4.56 96.208L4.608 72.592H10.848L10.8 96.64C10.8 97.92 11.136 98.912 11.808 99.616C12.512 100.288 13.504 100.624 14.784 100.624H18.864V106.336H15.12ZM0.432 84.832V79.936H18.864V84.832H0.432ZM41.6512 106.912C39.3472 106.912 37.3152 106.544 35.5552 105.808C33.7952 105.072 32.3072 104.08 31.0912 102.832C29.8752 101.552 28.9472 100.112 28.3072 98.512C27.6992 96.912 27.3952 95.248 27.3952 93.52V92.512C27.3952 90.72 27.7152 89.024 28.3552 87.424C29.0272 85.792 29.9712 84.352 31.1872 83.104C32.4352 81.824 33.9392 80.832 35.6992 80.128C37.4593 79.392 39.4433 79.024 41.6512 79.024C43.8592 79.024 45.8432 79.392 47.6033 80.128C49.3633 80.832 50.8513 81.824 52.0673 83.104C53.3153 84.352 54.2593 85.792 54.8993 87.424C55.5393 89.024 55.8593 90.72 55.8593 92.512V93.52C55.8593 95.248 55.5393 96.912 54.8993 98.512C54.2913 100.112 53.3792 101.552 52.1632 102.832C50.9473 104.08 49.4593 105.072 47.6993 105.808C45.9392 106.544 43.9232 106.912 41.6512 106.912ZM41.6512 101.2C43.2833 101.2 44.6593 100.848 45.7793 100.144C46.8993 99.408 47.7473 98.432 48.3233 97.216C48.8993 95.968 49.1872 94.56 49.1872 92.992C49.1872 91.392 48.8832 89.984 48.2752 88.768C47.6992 87.52 46.8352 86.544 45.6833 85.84C44.5633 85.104 43.2193 84.736 41.6512 84.736C40.0832 84.736 38.7232 85.104 37.5713 85.84C36.4513 86.544 35.5872 87.52 34.9792 88.768C34.3712 89.984 34.0672 91.392 34.0672 92.992C34.0672 94.56 34.3552 95.968 34.9312 97.216C35.5392 98.432 36.4032 99.408 37.5232 100.144C38.6432 100.848 40.0192 101.2 41.6512 101.2ZM19.584 166V158.272H18.48V149.68C18.48 148.176 18.112 147.056 17.376 146.32C16.64 145.584 15.504 145.216 13.968 145.216C13.168 145.216 12.208 145.232 11.088 145.264C9.968 145.296 8.832 145.344 7.68 145.408C6.56 145.44 5.552 145.488 4.656 145.552V139.888C5.392 139.824 6.224 139.76 7.152 139.696C8.08 139.632 9.024 139.6 9.984 139.6C10.976 139.568 11.904 139.552 12.768 139.552C15.456 139.552 17.68 139.904 19.44 140.608C21.232 141.312 22.576 142.416 23.472 143.92C24.4 145.424 24.864 147.392 24.864 149.824V166H19.584ZM11.184 166.672C9.296 166.672 7.632 166.336 6.192 165.664C4.784 164.992 3.68 164.032 2.88 162.784C2.112 161.536 1.728 160.032 1.728 158.272C1.728 156.352 2.192 154.784 3.12 153.568C4.08 152.352 5.408 151.44 7.104 150.832C8.832 150.224 10.848 149.92 13.152 149.92H19.2V153.904H13.056C11.52 153.904 10.336 154.288 9.504 155.056C8.704 155.792 8.304 156.752 8.304 157.936C8.304 159.12 8.704 160.08 9.504 160.816C10.336 161.552 11.52 161.92 13.056 161.92C13.984 161.92 14.832 161.76 15.6 161.44C16.4 161.088 17.056 160.512 17.568 159.712C18.112 158.88 18.416 157.76 18.48 156.352L20.112 158.224C19.952 160.048 19.504 161.584 18.768 162.832C18.064 164.08 17.072 165.04 15.792 165.712C14.544 166.352 13.008 166.672 11.184 166.672ZM36.8107 166V139.936H42.0907V151.12H41.6107C41.6107 148.464 41.9627 146.256 42.6667 144.496C43.3707 142.704 44.4107 141.36 45.7867 140.464C47.1947 139.568 48.9387 139.12 51.0188 139.12H51.3067C54.4107 139.12 56.7627 140.128 58.3627 142.144C59.9627 144.128 60.7627 147.104 60.7627 151.072V166H54.0907V150.496C54.0907 148.896 53.6267 147.6 52.6988 146.608C51.8028 145.616 50.5548 145.12 48.9548 145.12C47.3228 145.12 45.9948 145.632 44.9707 146.656C43.9787 147.648 43.4827 148.992 43.4827 150.688V166H36.8107ZM90.9757 166L82.2397 153.808H78.3517L89.4397 139.936H96.3997L86.1757 152.752L86.3197 149.392L98.5118 166H90.9757ZM72.7357 166V130.96H79.4077V166H72.7357ZM108.409 166V139.936H115.081V166H108.409ZM104.761 144.928V139.936H115.081V144.928H104.761ZM110.857 136.816C109.545 136.816 108.569 136.48 107.929 135.808C107.321 135.104 107.017 134.24 107.017 133.216C107.017 132.128 107.321 131.248 107.929 130.576C108.569 129.904 109.545 129.568 110.857 129.568C112.169 129.568 113.129 129.904 113.737 130.576C114.345 131.248 114.649 132.128 114.649 133.216C114.649 134.24 114.345 135.104 113.737 135.808C113.129 136.48 112.169 136.816 110.857 136.816ZM126.514 166V158.32H134.002V166H126.514Z" fill="white"/>
</svg>
